RobotoAvar2-YOPQ280.ufo
<glyph name="zero" format="2">
	<unicode hex="0030"/>
	<advance width="1156"/>
	<outline>
		<contour>
			<point x="110" y="460" type="qcurve" smooth="yes"/>
			<point x="110" y="996" type="line" smooth="yes"/>
			<point x="110" y="1216"/>
			<point x="358" y="1486"/>
			<point x="578" y="1486" type="qcurve" smooth="yes"/>
			<point x="796" y="1486"/>
			<point x="1046" y="1216"/>
			<point x="1046" y="996" type="qcurve" smooth="yes"/>
			<point x="1046" y="460" type="line" smooth="yes"/>
			<point x="1046" y="240"/>
			<point x="796" y="-30"/>
			<point x="578" y="-30" type="qcurve" smooth="yes"/>
			<point x="358" y="-30"/>
			<point x="110" y="240"/>
		</contour>
		<contour>
			<point x="304" y="722" type="line" smooth="yes"/>
			<point x="304" y="649"/>
			<point x="438" y="552"/>
			<point x="578" y="552" type="qcurve" smooth="yes"/>
			<point x="718" y="552"/>
			<point x="852" y="649"/>
			<point x="852" y="722" type="qcurve" smooth="yes"/>
			<point x="852" y="733" type="line" smooth="yes"/>
			<point x="852" y="807"/>
			<point x="718" y="903"/>
			<point x="578" y="903" type="qcurve" smooth="yes"/>
			<point x="438" y="903"/>
			<point x="304" y="807"/>
			<point x="304" y="733" type="qcurve" smooth="yes"/>
		</contour>
	</outline>
</glyph>
<glyph name="question" format="2">
	<unicode hex="003F"/>
	<advance width="968"/>
	<outline>
		<contour>
			<point x="320" y="97" type="qcurve" smooth="yes"/>
			<point x="320" y="146"/>
			<point x="384" y="216"/>
			<point x="444" y="216" type="qcurve" smooth="yes"/>
			<point x="504" y="216"/>
			<point x="568" y="146"/>
			<point x="568" y="97" type="qcurve" smooth="yes"/>
			<point x="568" y="48"/>
			<point x="504" y="-22"/>
			<point x="444" y="-22" type="qcurve" smooth="yes"/>
			<point x="384" y="-22"/>
			<point x="320" y="48"/>
		</contour>
		<contour>
			<point x="60" y="920" type="line"/>
			<point x="60" y="940" type="line" smooth="yes"/>
			<point x="60" y="1230"/>
			<point x="272" y="1476"/>
			<point x="457" y="1476" type="qcurve" smooth="yes"/>
			<point x="665" y="1476"/>
			<point x="874" y="1281"/>
			<point x="874" y="1100" type="qcurve" smooth="yes"/>
			<point x="874" y="966"/>
			<point x="726" y="758"/>
			<point x="654" y="694" type="qcurve" smooth="yes"/>
			<point x="569" y="617"/>
			<point x="528" y="489"/>
			<point x="528" y="419" type="qcurve" smooth="yes"/>
			<point x="528" y="409" type="line"/>
			<point x="342" y="409" type="line"/>
			<point x="342" y="419" type="line" smooth="yes"/>
			<point x="342" y="544"/>
			<point x="406" y="689"/>
			<point x="502" y="783" type="qcurve" smooth="yes"/>
			<point x="574" y="855"/>
			<point x="591" y="920"/>
			<point x="591" y="935" type="qcurve" smooth="yes"/>
			<point x="591" y="957"/>
			<point x="529" y="993"/>
			<point x="457" y="993" type="qcurve" smooth="yes"/>
			<point x="362" y="993"/>
			<point x="245" y="962"/>
			<point x="245" y="940" type="qcurve" smooth="yes"/>
			<point x="245" y="920" type="line"/>
		</contour>
	</outline>
</glyph>
<glyph name="H" format="2">
	<unicode hex="0048"/>
	<advance width="1458"/>
	<outline>
		<contour>
			<point x="170" y="0" type="line"/>
			<point x="170" y="1456" type="line"/>
			<point x="362" y="1456" type="line"/>
			<point x="362" y="0" type="line"/>
		</contour>
		<contour>
			<point x="266" y="472" type="line"/>
			<point x="266" y="1032" type="line"/>
			<point x="1192" y="1032" type="line"/>
			<point x="1192" y="472" type="line"/>
		</contour>
		<contour>
			<point x="1096" y="0" type="line"/>
			<point x="1096" y="1456" type="line"/>
			<point x="1288" y="1456" type="line"/>
			<point x="1288" y="0" type="line"/>
		</contour>
	</outline>
	<anchor name="bottom" x="729" y="0"/>
	<anchor name="center" x="729" y="1100"/>
	<anchor name="top" x="729" y="1456"/>
	<anchor name="cy_descender" x="1194" y="0"/>
	<anchor name="tonos" x="-75" y="1074"/>
</glyph>
<glyph name="K" format="2">
  <advance width="1459"/>
  <unicode hex="004B"/>
  <anchor x="633" y="0" name="bottom"/>
  <anchor x="633" y="1456" name="top"/>
  <outline>
    <contour>
      <point x="170" y="0" type="line"/>
      <point x="170" y="1456" type="line"/>
      <point x="362" y="1456" type="line"/>
      <point x="362" y="0" type="line"/>
    </contour>
    <contour>
      <point x="1240" y="0" type="line"/>
      <point x="601" y="842" type="line"/>
      <point x="725" y="976" type="line"/>
      <point x="1466" y="0" type="line"/>
    </contour>
    <contour>
      <point x="268" y="4" type="line"/>
      <point x="268" y="695" type="line"/>
      <point x="1006" y="1456" type="line"/>
      <point x="1654" y="1456" type="line"/>
    </contour>
  </outline>
</glyph>
<glyph name="b" format="2">
  <advance width="1170"/>
  <unicode hex="0062"/>
  <anchor x="585" y="0" name="bottom"/>
  <anchor x="585" y="1456" name="top"/>
  <outline>
    <contour>
      <point x="148" y="0" type="line"/>
      <point x="148" y="1456" type="line"/>
      <point x="334" y="1456" type="line"/>
      <point x="334" y="137" type="line"/>
      <point x="324" y="137" type="line"/>
      <point x="316" y="0" type="line"/>
    </contour>
    <contour>
      <point x="605" y="493" type="qcurve" smooth="yes"/>
      <point x="755" y="493"/>
      <point x="895" y="499"/>
      <point x="895" y="510" type="qcurve" smooth="yes"/>
      <point x="895" y="542" type="line" smooth="yes"/>
      <point x="895" y="550"/>
      <point x="755" y="559"/>
      <point x="605" y="559" type="qcurve" smooth="yes"/>
      <point x="464" y="559"/>
      <point x="291" y="553"/>
      <point x="291" y="549" type="qcurve" smooth="yes"/>
      <point x="291" y="521" type="line" smooth="yes"/>
      <point x="291" y="511"/>
      <point x="469" y="493"/>
    </contour>
    <contour>
      <point x="645" y="-20" type="qcurve" smooth="yes"/>
      <point x="452" y="-20"/>
      <point x="224" y="265"/>
      <point x="224" y="520" type="qcurve" smooth="yes"/>
      <point x="224" y="554" type="line" smooth="yes"/>
      <point x="224" y="765"/>
      <point x="441" y="1072"/>
      <point x="645" y="1072" type="qcurve" smooth="yes"/>
      <point x="845" y="1072"/>
      <point x="1085" y="772"/>
      <point x="1085" y="542" type="qcurve" smooth="yes"/>
      <point x="1085" y="510" type="line" smooth="yes"/>
      <point x="1085" y="280"/>
      <point x="845" y="-20"/>
    </contour>
  </outline>
</glyph>
<glyph name="k" format="2">
  <advance width="1028"/>
  <unicode hex="006B"/>
  <anchor x="514" y="0" name="bottom"/>
  <anchor x="514" y="1456" name="top"/>
  <outline>
    <contour>
      <point x="148" y="0" type="line"/>
      <point x="148" y="1456" type="line"/>
      <point x="334" y="1456" type="line"/>
      <point x="334" y="0" type="line"/>
    </contour>
    <contour>
      <point x="826" y="0" type="line"/>
      <point x="444" y="508" type="line"/>
      <point x="560" y="636" type="line"/>
      <point x="1044" y="0" type="line"/>
    </contour>
    <contour>
      <point x="241" y="248" type="line"/>
      <point x="241" y="671" type="line"/>
      <point x="844" y="1052" type="line"/>
      <point x="1505" y="1052" type="line"/>
    </contour>
  </outline>
</glyph>
<glyph name="s" format="2">
  <advance width="1010"/>
  <unicode hex="0073"/>
  <anchor x="505" y="0" name="bottom"/>
  <anchor x="505" y="1052" name="top"/>
  <outline>
    <contour>
      <point x="80" y="310" type="line"/>
      <point x="266" y="310" type="line"/>
      <point x="266" y="305" type="line" smooth="yes"/>
      <point x="266" y="300"/>
      <point x="400" y="295"/>
      <point x="510" y="295" type="qcurve" smooth="yes"/>
      <point x="620" y="295"/>
      <point x="747" y="346"/>
      <point x="747" y="366" type="qcurve" smooth="yes"/>
      <point x="747" y="381"/>
      <point x="628" y="434"/>
      <point x="475" y="465" type="qcurve" smooth="yes"/>
      <point x="303" y="496"/>
      <point x="105" y="650"/>
      <point x="105" y="780" type="qcurve" smooth="yes"/>
      <point x="105" y="910"/>
      <point x="320" y="1082"/>
      <point x="500" y="1082" type="qcurve" smooth="yes"/>
      <point x="680" y="1082"/>
      <point x="900" y="911"/>
      <point x="900" y="765" type="qcurve" smooth="yes"/>
      <point x="900" y="760" type="line"/>
      <point x="715" y="760" type="line"/>
      <point x="715" y="769" type="line" smooth="yes"/>
      <point x="715" y="774"/>
      <point x="610" y="779"/>
      <point x="500" y="779" type="qcurve" smooth="yes"/>
      <point x="390" y="779"/>
      <point x="289" y="736"/>
      <point x="289" y="721" type="qcurve" smooth="yes"/>
      <point x="289" y="699"/>
      <point x="366" y="647"/>
      <point x="575" y="620" type="qcurve" smooth="yes"/>
      <point x="747" y="598"/>
      <point x="930" y="430"/>
      <point x="930" y="290" type="qcurve" smooth="yes"/>
      <point x="930" y="150"/>
      <point x="720" y="-30"/>
      <point x="510" y="-30" type="qcurve" smooth="yes"/>
      <point x="300" y="-30"/>
      <point x="80" y="153"/>
      <point x="80" y="305" type="qcurve" smooth="yes"/>
    </contour>
  </outline>
</glyph>
<glyph name="asciitilde" format="2">
	<unicode hex="007E"/>
	<advance width="1692"/>
	<outline>
		<contour>
			<point x="45" y="232" type="qcurve"/>
			<point x="45" y="964" type="line"/>
			<point x="126" y="1015"/>
			<point x="352" y="1072"/>
			<point x="464" y="1073" type="qcurve" smooth="yes"/>
			<point x="599" y="1074"/>
			<point x="757" y="1031"/>
			<point x="865" y="1000" type="qcurve" smooth="yes"/>
			<point x="966" y="970"/>
			<point x="1112" y="931"/>
			<point x="1239" y="931" type="qcurve" smooth="yes"/>
			<point x="1351" y="931"/>
			<point x="1565" y="999"/>
			<point x="1646" y="1059" type="qcurve"/>
			<point x="1646" y="326" type="line"/>
			<point x="1565" y="275"/>
			<point x="1352" y="217"/>
			<point x="1241" y="217" type="qcurve" smooth="yes"/>
			<point x="1114" y="217"/>
			<point x="968" y="256"/>
			<point x="867" y="286" type="qcurve" smooth="yes"/>
			<point x="759" y="317"/>
			<point x="599" y="359"/>
			<point x="464" y="359" type="qcurve" smooth="yes"/>
			<point x="352" y="359"/>
			<point x="126" y="292"/>
		</contour>
	</outline>
</glyph>
<glyph name="eth" format="2">
  <advance width="1114"/>
  <unicode hex="00F0"/>
  <outline>
    <contour>
      <point x="144" y="1080" type="qcurve"/>
      <point x="287" y="1476" type="line"/>
      <point x="624" y="1401"/>
      <point x="1029" y="978"/>
      <point x="1029" y="633" type="qcurve"/>
      <point x="1029" y="535" type="line"/>
      <point x="1029" y="289"/>
      <point x="763" y="-20"/>
      <point x="561" y="-20" type="qcurve" smooth="yes"/>
      <point x="351" y="-20"/>
      <point x="85" y="265"/>
      <point x="85" y="468" type="qcurve" smooth="yes"/>
      <point x="85" y="698"/>
      <point x="340" y="978"/>
      <point x="533" y="978" type="qcurve" smooth="yes"/>
      <point x="702" y="978"/>
      <point x="933" y="749"/>
      <point x="933" y="614" type="qcurve"/>
      <point x="864" y="538" type="line"/>
      <point x="864" y="546"/>
      <point x="720" y="560"/>
      <point x="577" y="560" type="qcurve" smooth="yes"/>
      <point x="431" y="560"/>
      <point x="271" y="540"/>
      <point x="271" y="524" type="qcurve" smooth="yes"/>
      <point x="271" y="512"/>
      <point x="424" y="491"/>
      <point x="565" y="491" type="qcurve" smooth="yes"/>
      <point x="693" y="491"/>
      <point x="843" y="529"/>
      <point x="843" y="573" type="qcurve" smooth="yes"/>
      <point x="843" y="635" type="line" smooth="yes"/>
      <point x="843" y="955"/>
      <point x="398" y="1054"/>
    </contour>
    <contour>
      <point x="1002" y="1124" type="line"/>
      <point x="436" y="818" type="line"/>
      <point x="285" y="1053" type="line"/>
      <point x="851" y="1358" type="line"/>
    </contour>
  </outline>
</glyph>
<glyph name="divide" format="2">
  <advance width="1024"/>
  <unicode hex="00F7"/>
  <outline>
    <contour>
      <point x="386" y="1165" type="qcurve" smooth="yes"/>
      <point x="386" y="1218"/>
      <point x="449" y="1288"/>
      <point x="511" y="1288" type="qcurve" smooth="yes"/>
      <point x="572" y="1288"/>
      <point x="637" y="1218"/>
      <point x="637" y="1165" type="qcurve" smooth="yes"/>
      <point x="637" y="1114"/>
      <point x="572" y="1045"/>
      <point x="511" y="1045" type="qcurve" smooth="yes"/>
      <point x="449" y="1045"/>
      <point x="386" y="1114"/>
    </contour>
    <contour>
      <point x="386" y="188" type="qcurve" smooth="yes"/>
      <point x="386" y="240"/>
      <point x="449" y="311"/>
      <point x="511" y="311" type="qcurve" smooth="yes"/>
      <point x="572" y="311"/>
      <point x="637" y="240"/>
      <point x="637" y="188" type="qcurve" smooth="yes"/>
      <point x="637" y="137"/>
      <point x="572" y="67"/>
      <point x="511" y="67" type="qcurve" smooth="yes"/>
      <point x="449" y="67"/>
      <point x="386" y="137"/>
    </contour>
    <contour>
      <point x="57" y="488" type="line"/>
      <point x="57" y="860" type="line"/>
      <point x="967" y="860" type="line"/>
      <point x="967" y="488" type="line"/>
    </contour>
  </outline>
</glyph>
<glyph name="OE" format="2">
	<unicode hex="0152"/>
	<advance width="1879"/>
	<outline>
		<contour>
			<point x="672" y="-21" type="qcurve" smooth="yes"/>
			<point x="458" y="-21"/>
			<point x="115" y="340"/>
			<point x="115" y="682" type="qcurve" smooth="yes"/>
			<point x="115" y="772" type="line" smooth="yes"/>
			<point x="115" y="1105"/>
			<point x="455" y="1477"/>
			<point x="713" y="1477" type="qcurve" smooth="yes"/>
			<point x="746" y="1477"/>
			<point x="897" y="1464"/>
			<point x="964" y="1456" type="qcurve"/>
			<point x="1801" y="1456" type="line"/>
			<point x="1801" y="897" type="line"/>
			<point x="1079" y="897" type="line"/>
			<point x="1079" y="550" type="line"/>
			<point x="1811" y="550" type="line"/>
			<point x="1811" y="0" type="line"/>
			<point x="964" y="0" type="line"/>
			<point x="897" y="-7"/>
			<point x="748" y="-21"/>
		</contour>
		<contour>
			<point x="715" y="572" type="qcurve" smooth="yes"/>
			<point x="768" y="572"/>
			<point x="848" y="574"/>
			<point x="886" y="576" type="qcurve"/>
			<point x="886" y="881" type="line"/>
			<point x="834" y="883"/>
			<point x="739" y="885"/>
			<point x="717" y="885" type="qcurve" smooth="yes"/>
			<point x="540" y="885"/>
			<point x="310" y="808"/>
			<point x="310" y="741" type="qcurve" smooth="yes"/>
			<point x="310" y="717" type="line" smooth="yes"/>
			<point x="310" y="648"/>
			<point x="543" y="572"/>
		</contour>
		<contour>
			<point x="989" y="554" type="line"/>
			<point x="989" y="890" type="line"/>
			<point x="1709" y="890" type="line"/>
			<point x="1709" y="554" type="line"/>
		</contour>
	</outline>
</glyph>
<glyph name="macroncomb" format="2">
  <unicode hex="0304"/>
  <anchor x="0" y="1052" name="_top"/>
  <anchor x="0" y="1630" name="top"/>
  <outline>
    <contour>
      <point x="314" y="1630" type="line"/>
      <point x="314" y="1210" type="line"/>
      <point x="-314" y="1210" type="line"/>
      <point x="-314" y="1630" type="line"/>
    </contour>
  </outline>
</glyph>
<glyph name="cedillacomb" format="2">
  <unicode hex="0327"/>
  <anchor x="0" y="0" name="_bottom"/>
  <anchor x="0" y="-457" name="bottom"/>
  <outline>
    <contour>
      <point x="-72" y="20" type="line"/>
      <point x="57" y="20" type="line"/>
      <point x="29" y="-75" type="line"/>
      <point x="86" y="-85"/>
      <point x="212" y="-220"/>
      <point x="212" y="-307" type="qcurve" smooth="yes"/>
      <point x="212" y="-400"/>
      <point x="38" y="-528"/>
      <point x="-164" y="-528" type="qcurve"/>
      <point x="-171" y="-350" type="line"/>
      <point x="-49" y="-350"/>
      <point x="30" y="-330"/>
      <point x="30" y="-307" type="qcurve" smooth="yes"/>
      <point x="30" y="-287"/>
      <point x="-29" y="-264"/>
      <point x="-113" y="-257" type="qcurve"/>
    </contour>
  </outline>
</glyph>
<glyph name="Gamma" format="2">
	<unicode hex="0393"/>
	<advance width="1077"/>
	<outline>
		<contour>
			<point x="170" y="0" type="line"/>
			<point x="170" y="1456" type="line"/>
			<point x="1052" y="1456" type="line"/>
			<point x="1052" y="896" type="line"/>
			<point x="362" y="896" type="line"/>
			<point x="362" y="0" type="line"/>
		</contour>
	</outline>
	<anchor name="top" x="632" y="1456"/>
	<anchor name="center" x="321" y="708"/>
</glyph>
<glyph name="beta" format="2">
  <advance width="1190"/>
  <unicode hex="03B2"/>
  <outline>
    <contour>
      <point x="148" y="-416" type="line"/>
      <point x="148" y="1058" type="line" smooth="yes"/>
      <point x="148" y="1231"/>
      <point x="397" y="1476"/>
      <point x="595" y="1476" type="qcurve" smooth="yes"/>
      <point x="798" y="1476"/>
      <point x="1014" y="1270"/>
      <point x="1014" y="1155" type="qcurve"/>
      <point x="1014" y="1026"/>
      <point x="874" y="859"/>
      <point x="770" y="834" type="qcurve"/>
      <point x="770" y="850" type="line"/>
      <point x="923" y="830"/>
      <point x="1105" y="630"/>
      <point x="1105" y="463" type="qcurve" smooth="yes"/>
      <point x="1105" y="243"/>
      <point x="835" y="-21"/>
      <point x="646" y="-21" type="qcurve" smooth="yes"/>
      <point x="498" y="-21"/>
      <point x="295" y="147"/>
      <point x="238" y="254" type="qcurve"/>
      <point x="238" y="575" type="line"/>
      <point x="310" y="522"/>
      <point x="488" y="469"/>
      <point x="633" y="469" type="qcurve" smooth="yes"/>
      <point x="768" y="469"/>
      <point x="916" y="500"/>
      <point x="916" y="517" type="qcurve" smooth="yes"/>
      <point x="916" y="534"/>
      <point x="764" y="545"/>
      <point x="570" y="547" type="qcurve" smooth="yes"/>
      <point x="472" y="547" type="line"/>
      <point x="472" y="933" type="line"/>
      <point x="571" y="933" type="line" smooth="yes"/>
      <point x="713" y="933"/>
      <point x="839" y="941"/>
      <point x="839" y="963" type="qcurve" smooth="yes"/>
      <point x="839" y="982"/>
      <point x="729" y="985"/>
      <point x="595" y="985" type="qcurve" smooth="yes"/>
      <point x="462" y="985"/>
      <point x="334" y="962"/>
      <point x="334" y="907" type="qcurve" smooth="yes"/>
      <point x="334" y="-416" type="line"/>
    </contour>
  </outline>
</glyph>
<glyph name="eta" format="2">
	<unicode hex="03B7"/>
	<advance width="1138"/>
	<outline>
		<contour>
			<point x="148" y="0" type="line"/>
			<point x="148" y="1052" type="line"/>
			<point x="316" y="1052" type="line"/>
			<point x="334" y="744" type="line"/>
			<point x="334" y="0" type="line"/>
		</contour>
		<contour>
			<point x="241" y="337" type="qcurve"/>
			<point x="241" y="746" type="line"/>
			<point x="312" y="932"/>
			<point x="533" y="1072"/>
			<point x="652" y="1072" type="qcurve" smooth="yes"/>
			<point x="811" y="1072"/>
			<point x="1000" y="891"/>
			<point x="1000" y="679" type="qcurve" smooth="yes"/>
			<point x="1000" y="-416" type="line"/>
			<point x="814" y="-416" type="line"/>
			<point x="814" y="314" type="line" smooth="yes"/>
			<point x="814" y="440"/>
			<point x="698" y="549"/>
			<point x="597" y="549" type="qcurve" smooth="yes"/>
			<point x="496" y="549"/>
			<point x="346" y="462"/>
		</contour>
	</outline>
	<anchor name="bottom" x="569" y="0"/>
	<anchor name="top" x="595" y="1052"/>
</glyph>
<glyph name="mu" format="2">
	<unicode hex="03BC"/>
	<advance width="1206"/>
	<outline>
		<contour>
			<point x="148" y="-416" type="line"/>
			<point x="148" y="1052" type="line"/>
			<point x="334" y="1052" type="line"/>
			<point x="334" y="-416" type="line"/>
		</contour>
		<contour>
			<point x="256" y="752" type="line"/>
			<point x="336" y="592"/>
			<point x="488" y="492"/>
			<point x="580" y="492" type="qcurve" smooth="yes"/>
			<point x="672" y="492"/>
			<point x="814" y="628"/>
			<point x="814" y="717" type="qcurve" smooth="yes"/>
			<point x="814" y="1052" type="line"/>
			<point x="1000" y="1052" type="line"/>
			<point x="1000" y="625" type="line" smooth="yes"/>
			<point x="1000" y="550"/>
			<point x="1046" y="493"/>
			<point x="1091" y="493" type="qcurve" smooth="yes"/>
			<point x="1111" y="493"/>
			<point x="1147" y="500"/>
			<point x="1164" y="507" type="qcurve"/>
			<point x="1164" y="5" type="line"/>
			<point x="1145" y="-4"/>
			<point x="1090" y="-17"/>
			<point x="1054" y="-17" type="qcurve" smooth="yes"/>
			<point x="955" y="-17"/>
			<point x="845" y="59"/>
			<point x="830" y="130" type="qcurve"/>
			<point x="824" y="130" type="line"/>
			<point x="788" y="68"/>
			<point x="654" y="-20"/>
			<point x="566" y="-20" type="qcurve" smooth="yes"/>
			<point x="466" y="-20"/>
			<point x="311" y="91"/>
			<point x="256" y="194" type="qcurve"/>
		</contour>
	</outline>
</glyph>
<glyph name="finalsigma" format="2">
	<unicode hex="03C2"/>
	<advance width="1048"/>
	<outline>
		<contour>
			<point x="639" y="-348" type="line"/>
			<point x="661" y="-298"/>
			<point x="693" y="-225"/>
			<point x="693" y="-201" type="qcurve" smooth="yes"/>
			<point x="693" y="-168"/>
			<point x="568" y="-133"/>
			<point x="484" y="-114" type="qcurve" smooth="yes"/>
			<point x="436" y="-103" type="line" smooth="yes"/>
			<point x="235" y="-57"/>
			<point x="85" y="202"/>
			<point x="85" y="505" type="qcurve" smooth="yes"/>
			<point x="85" y="542" type="line" smooth="yes"/>
			<point x="85" y="772"/>
			<point x="342" y="1082"/>
			<point x="581" y="1082" type="qcurve" smooth="yes"/>
			<point x="817" y="1082"/>
			<point x="999" y="792"/>
			<point x="999" y="558" type="qcurve" smooth="yes"/>
			<point x="999" y="551" type="line"/>
			<point x="819" y="553" type="line"/>
			<point x="819" y="553" type="line" smooth="yes"/>
			<point x="819" y="553"/>
			<point x="701" y="554"/>
			<point x="581" y="554" type="qcurve"/>
			<point x="435" y="554"/>
			<point x="275" y="553"/>
			<point x="275" y="552" type="qcurve" smooth="yes"/>
			<point x="275" y="513" type="line" smooth="yes"/>
			<point x="275" y="474"/>
			<point x="402" y="400"/>
			<point x="559" y="355" type="qcurve" smooth="yes"/>
			<point x="611" y="340" type="line" smooth="yes"/>
			<point x="755" y="299"/>
			<point x="871" y="89"/>
			<point x="871" y="-35" type="qcurve" smooth="yes"/>
			<point x="871" y="-153"/>
			<point x="841" y="-278"/>
			<point x="809" y="-348" type="qcurve"/>
		</contour>
	</outline>
	<guideline x="809" y="291" angle="90" identifier="YDnJieaqGK"/>
	<guideline x="856" y="823" angle="90" identifier="RUfORTLzsN"/>
</glyph>
<glyph name="upsilon" format="2">
	<unicode hex="03C5"/>
	<advance width="1128"/>
	<outline>
		<contour>
			<point x="564" y="-20" type="qcurve" smooth="yes"/>
			<point x="337" y="-20"/>
			<point x="138" y="201"/>
			<point x="138" y="403" type="qcurve" smooth="yes"/>
			<point x="138" y="1052" type="line"/>
			<point x="324" y="1052" type="line"/>
			<point x="324" y="664" type="line" smooth="yes"/>
			<point x="324" y="582"/>
			<point x="440" y="492"/>
			<point x="564" y="492" type="qcurve" smooth="yes"/>
			<point x="688" y="492"/>
			<point x="804" y="582"/>
			<point x="804" y="664" type="qcurve" smooth="yes"/>
			<point x="804" y="1052" type="line"/>
			<point x="990" y="1052" type="line"/>
			<point x="990" y="403" type="line" smooth="yes"/>
			<point x="990" y="201"/>
			<point x="791" y="-20"/>
		</contour>
	</outline>
	<anchor name="top" x="565" y="1052"/>
</glyph>
<glyph name="Kaisymbol" format="2">
	<unicode hex="03CF"/>
	<advance width="1450"/>
	<outline>
		<contour>
			<point x="170" y="0" type="line"/>
			<point x="170" y="1456" type="line"/>
			<point x="362" y="1456" type="line"/>
			<point x="362" y="0" type="line"/>
		</contour>
		<contour>
			<point x="269" y="252" type="line"/>
			<point x="269" y="937" type="line"/>
			<point x="729" y="1456" type="line"/>
			<point x="1470" y="1456" type="line"/>
			<point x="774" y="757" type="line"/>
		</contour>
		<contour>
			<point x="1009" y="294" type="line"/>
			<point x="586" y="863" type="line"/>
			<point x="709" y="998" type="line"/>
			<point x="1456" y="14" type="line"/>
			<point x="705" y="-590" type="line"/>
			<point x="395" y="-193" type="line"/>
		</contour>
	</outline>
</glyph>
<glyph name="Icyr" format="2">
	<unicode hex="0418"/>
	<advance width="1478"/>
	<outline>
		<contour>
			<point x="1308" y="0" type="line"/>
			<point x="1116" y="0" type="line"/>
			<point x="1116" y="683" type="line" smooth="yes"/>
			<point x="1116" y="713"/>
			<point x="1117" y="788"/>
			<point x="1118" y="818" type="qcurve"/>
			<point x="1111" y="818" type="line"/>
			<point x="1097" y="793"/>
			<point x="1062" y="733"/>
			<point x="1043" y="703" type="qcurve" smooth="yes"/>
			<point x="587" y="0" type="line"/>
			<point x="170" y="0" type="line"/>
			<point x="170" y="1456" type="line"/>
			<point x="362" y="1456" type="line"/>
			<point x="362" y="763" type="line" smooth="yes"/>
			<point x="362" y="733"/>
			<point x="361" y="658"/>
			<point x="360" y="628" type="qcurve"/>
			<point x="368" y="628" type="line"/>
			<point x="380" y="653"/>
			<point x="414" y="711"/>
			<point x="435" y="743" type="qcurve" smooth="yes"/>
			<point x="901" y="1456" type="line"/>
			<point x="1308" y="1456" type="line"/>
		</contour>
	</outline>
	<anchor name="top" x="739" y="1456"/>
	<guideline x="739" y="930" angle="90" identifier="jpSOnFR6u4"/>
</glyph>
<glyph name="ve" format="2">
	<unicode hex="0432"/>
	<advance width="1125"/>
	<outline>
		<contour>
			<point x="148" y="0" type="line"/>
			<point x="148" y="1052" type="line"/>
			<point x="602" y="1052" type="line" smooth="yes"/>
			<point x="777" y="1052"/>
			<point x="978" y="912"/>
			<point x="978" y="771" type="qcurve" smooth="yes"/>
			<point x="978" y="682"/>
			<point x="871.052385261" y="563.0111833703"/>
			<point x="782" y="544" type="qcurve"/>
			<point x="782" y="541" type="line"/>
			<point x="891" y="525"/>
			<point x="1015" y="402"/>
			<point x="1015" y="306" type="qcurve" smooth="yes"/>
			<point x="1015" y="161"/>
			<point x="805" y="0"/>
			<point x="632" y="0" type="qcurve" smooth="yes"/>
		</contour>
		<contour>
			<point x="334" y="358" type="line"/>
			<point x="632" y="358" type="line" smooth="yes"/>
			<point x="733" y="358"/>
			<point x="828" y="362"/>
			<point x="828" y="369" type="qcurve" smooth="yes"/>
			<point x="828" y="376"/>
			<point x="734" y="380"/>
			<point x="632" y="383" type="qcurve" smooth="yes"/>
			<point x="254" y="383" type="line"/>
			<point x="254" y="697" type="line"/>
			<point x="602" y="697" type="line" smooth="yes"/>
			<point x="702" y="697"/>
			<point x="790" y="699"/>
			<point x="790" y="706" type="qcurve" smooth="yes"/>
			<point x="790" y="713"/>
			<point x="702" y="717"/>
			<point x="602" y="717" type="qcurve" smooth="yes"/>
			<point x="334" y="717" type="line"/>
		</contour>
	</outline>
</glyph>
<glyph name="ka" format="2">
	<unicode hex="043A"/>
	<advance width="1043"/>
	<outline>
		<contour>
			<point x="840" y="0" type="line"/>
			<point x="421" y="477" type="line"/>
			<point x="535" y="603" type="line"/>
			<point x="1068" y="0" type="line"/>
		</contour>
		<contour>
			<point x="241" y="670" type="line"/>
			<point x="373" y="670" type="line"/>
			<point x="705" y="1052" type="line"/>
			<point x="1233" y="1052" type="line"/>
			<point x="585" y="325" type="line"/>
			<point x="241" y="325" type="line"/>
		</contour>
		<contour>
			<point x="334" y="1052" type="line"/>
			<point x="334" y="0" type="line"/>
			<point x="148" y="0" type="line"/>
			<point x="148" y="1052" type="line"/>
		</contour>
	</outline>
	<anchor name="top" x="588" y="1052"/>
	<anchor name="cy_descender" x="837" y="0"/>
	<guideline x="241" y="553" angle="90" identifier="lmgRx0QBdK"/>
</glyph>
<glyph name="soft" format="2">
	<unicode hex="044C"/>
	<advance width="1048"/>
	<outline>
		<contour>
			<point x="148" y="0" type="line"/>
			<point x="148" y="1052" type="line"/>
			<point x="334" y="1052" type="line"/>
			<point x="334" y="413" type="line"/>
			<point x="576" y="413" type="line" smooth="yes"/>
			<point x="701" y="413"/>
			<point x="802" y="416"/>
			<point x="802" y="418" type="qcurve" smooth="yes"/>
			<point x="802" y="419"/>
			<point x="701" y="422"/>
			<point x="576" y="422" type="qcurve" smooth="yes"/>
			<point x="244" y="422" type="line"/>
			<point x="244" y="842" type="line"/>
			<point x="576" y="842" type="line" smooth="yes"/>
			<point x="774" y="842"/>
			<point x="988" y="616"/>
			<point x="988" y="424" type="qcurve" smooth="yes"/>
			<point x="988" y="231"/>
			<point x="774" y="0"/>
			<point x="576" y="0" type="qcurve" smooth="yes"/>
		</contour>
	</outline>
</glyph>
<glyph name="Kaverticalstrokecyr" format="2">
	<unicode hex="049C"/>
	<advance width="1929"/>
	<outline>
		<contour>
			<point x="170" y="0" type="line"/>
			<point x="170" y="1456" type="line"/>
			<point x="362" y="1456" type="line"/>
			<point x="362" y="0" type="line"/>
		</contour>
		<contour>
			<point x="1727" y="0" type="line"/>
			<point x="1143" y="747" type="line"/>
			<point x="1270" y="877" type="line"/>
			<point x="1956" y="0" type="line"/>
		</contour>
		<contour>
			<point x="794" y="900" type="line"/>
			<point x="977" y="900" type="line"/>
			<point x="1432" y="1456" type="line"/>
			<point x="2102" y="1456" type="line"/>
			<point x="1341" y="515" type="line"/>
			<point x="794" y="515" type="line"/>
		</contour>
		<contour>
			<point x="552" y="300" type="line"/>
			<point x="552" y="1156" type="line"/>
			<point x="1022" y="1156" type="line"/>
			<point x="1022" y="300" type="line"/>
		</contour>
	</outline>
	<guideline x="637" y="675" angle="90" identifier="5CJVZV5P4J"/>
</glyph>
<glyph name="Kabashkircyr" format="2">
	<unicode hex="04A0"/>
	<advance width="1695"/>
	<outline>
		<contour>
			<point x="1419" y="0" type="line"/>
			<point x="810" y="707" type="line"/>
			<point x="937" y="844" type="line"/>
			<point x="1655" y="0" type="line"/>
		</contour>
		<contour>
			<point x="495" y="930" type="line"/>
			<point x="699" y="930" type="line"/>
			<point x="1144" y="1456" type="line"/>
			<point x="1761" y="1456" type="line"/>
			<point x="1017" y="572" type="line"/>
			<point x="495" y="572" type="line"/>
		</contour>
		<contour>
			<point x="399" y="0" type="line"/>
			<point x="399" y="896" type="line"/>
			<point x="24" y="896" type="line"/>
			<point x="24" y="1456" type="line"/>
			<point x="591" y="1456" type="line"/>
			<point x="591" y="0" type="line"/>
		</contour>
	</outline>
</glyph>
<glyph name="daggerdbl" format="2">
  <advance width="1008"/>
  <unicode hex="2021"/>
  <outline>
    <contour>
      <point x="75" y="652" type="line"/>
      <point x="75" y="1225" type="line"/>
      <point x="933" y="1225" type="line"/>
      <point x="933" y="652" type="line"/>
    </contour>
    <contour>
      <point x="75" y="-167" type="line"/>
      <point x="75" y="406" type="line"/>
      <point x="933" y="406" type="line"/>
      <point x="933" y="-167" type="line"/>
    </contour>
    <contour>
      <point x="408" y="-451" type="line"/>
      <point x="425" y="152" type="line"/>
      <point x="410" y="536" type="line"/>
      <point x="425" y="905" type="line"/>
      <point x="408" y="1508" type="line"/>
      <point x="599" y="1508" type="line"/>
      <point x="582" y="905" type="line"/>
      <point x="597" y="534" type="line"/>
      <point x="582" y="152" type="line"/>
      <point x="599" y="-451" type="line"/>
    </contour>
  </outline>
</glyph>
<glyph name="commercialMinusSign" format="2">
  <advance width="1095"/>
  <unicode hex="2052"/>
  <outline>
    <contour>
      <point x="69" y="54" type="line"/>
      <point x="627" y="1497" type="line"/>
      <point x="995" y="1396" type="line"/>
      <point x="437" y="-47" type="line"/>
    </contour>
    <contour>
      <point x="711" y="148" type="qcurve" smooth="yes"/>
      <point x="711" y="213"/>
      <point x="802" y="310"/>
      <point x="873" y="310" type="qcurve" smooth="yes"/>
      <point x="944" y="310"/>
      <point x="1035" y="213"/>
      <point x="1035" y="148" type="qcurve" smooth="yes"/>
      <point x="1035" y="84"/>
      <point x="944" y="-13"/>
      <point x="873" y="-13" type="qcurve" smooth="yes"/>
      <point x="802" y="-13"/>
      <point x="711" y="84"/>
    </contour>
    <contour>
      <point x="60" y="1304" type="qcurve" smooth="yes"/>
      <point x="60" y="1369"/>
      <point x="151" y="1466"/>
      <point x="222" y="1466" type="qcurve" smooth="yes"/>
      <point x="293" y="1466"/>
      <point x="384" y="1369"/>
      <point x="384" y="1304" type="qcurve" smooth="yes"/>
      <point x="384" y="1240"/>
      <point x="293" y="1143"/>
      <point x="222" y="1143" type="qcurve" smooth="yes"/>
      <point x="151" y="1143"/>
      <point x="60" y="1240"/>
    </contour>
  </outline>
</glyph>
<glyph name="naira" format="2">
  <advance width="1024"/>
  <unicode hex="20A6"/>
  <outline>
    <contour>
      <point x="919" y="1456" type="line"/>
      <point x="919" y="0" type="line"/>
      <point x="738" y="0" type="line"/>
      <point x="267" y="542" type="line"/>
      <point x="245" y="653" type="line"/>
      <point x="233" y="653" type="line"/>
      <point x="246" y="525" type="line"/>
      <point x="246" y="0" type="line"/>
      <point x="96" y="0" type="line"/>
      <point x="96" y="1456" type="line"/>
      <point x="282" y="1456" type="line"/>
      <point x="736" y="1021" type="line"/>
      <point x="765" y="663" type="line"/>
      <point x="779" y="666" type="line"/>
      <point x="769" y="1025" type="line"/>
      <point x="769" y="1456" type="line"/>
    </contour>
    <contour>
      <point x="549" y="737" type="line"/>
      <point x="840" y="737" type="line"/>
      <point x="840" y="742" type="line"/>
      <point x="1032" y="744" type="line"/>
      <point x="1032" y="370" type="line"/>
      <point x="840" y="368" type="line"/>
      <point x="840" y="378" type="line"/>
      <point x="549" y="378" type="line"/>
    </contour>
    <contour>
      <point x="-8" y="368" type="line"/>
      <point x="-8" y="742" type="line"/>
      <point x="174" y="742" type="line"/>
      <point x="174" y="737" type="line"/>
      <point x="549" y="737" type="line"/>
      <point x="549" y="378" type="line"/>
      <point x="174" y="378" type="line"/>
      <point x="174" y="368" type="line"/>
    </contour>
    <contour>
      <point x="536" y="1051" type="line"/>
      <point x="840" y="1051" type="line"/>
      <point x="840" y="1061" type="line"/>
      <point x="1032" y="1063" type="line"/>
      <point x="1032" y="688" type="line"/>
      <point x="840" y="686" type="line"/>
      <point x="840" y="691" type="line"/>
      <point x="536" y="691" type="line"/>
    </contour>
    <contour>
      <point x="-8" y="686" type="line"/>
      <point x="-8" y="1061" type="line"/>
      <point x="174" y="1061" type="line"/>
      <point x="174" y="1051" type="line"/>
      <point x="536" y="1051" type="line"/>
      <point x="536" y="691" type="line"/>
      <point x="174" y="691" type="line"/>
      <point x="174" y="686" type="line"/>
    </contour>
  </outline>
</glyph>
<glyph name="uni20B1" format="2">
  <advance width="1024"/>
  <unicode hex="20B1"/>
  <outline>
    <contour>
      <point x="465" y="179" type="qcurve" smooth="yes"/>
      <point x="208" y="179" type="line"/>
      <point x="208" y="695" type="line"/>
      <point x="463" y="695" type="line" smooth="yes"/>
      <point x="617" y="695"/>
      <point x="729" y="765"/>
      <point x="729" y="838" type="qcurve" smooth="yes"/>
      <point x="729" y="911"/>
      <point x="617" y="970"/>
      <point x="463" y="970" type="qcurve" smooth="yes"/>
      <point x="298" y="970" type="line"/>
      <point x="298" y="0" type="line"/>
      <point x="110" y="0" type="line"/>
      <point x="110" y="1456" type="line"/>
      <point x="466" y="1456" type="line" smooth="yes"/>
      <point x="701" y="1456"/>
      <point x="915" y="1203"/>
      <point x="915" y="838" type="qcurve" smooth="yes"/>
      <point x="915" y="487"/>
      <point x="700" y="179"/>
    </contour>
    <contour>
      <point x="521" y="1112" type="line"/>
      <point x="820" y="1112" type="line"/>
      <point x="820" y="1137" type="line"/>
      <point x="1019" y="1139" type="line"/>
      <point x="1019" y="826" type="line"/>
      <point x="840" y="824" type="line"/>
      <point x="840" y="839" type="line"/>
      <point x="521" y="839" type="line"/>
    </contour>
    <contour>
      <point x="-1" y="814" type="line"/>
      <point x="-1" y="1137" type="line"/>
      <point x="201" y="1137" type="line"/>
      <point x="201" y="1112" type="line"/>
      <point x="521" y="1112" type="line"/>
      <point x="521" y="839" type="line"/>
      <point x="201" y="839" type="line"/>
      <point x="201" y="814" type="line"/>
    </contour>
    <contour>
      <point x="506" y="776" type="line"/>
      <point x="840" y="776" type="line"/>
      <point x="840" y="791" type="line"/>
      <point x="1019" y="793" type="line"/>
      <point x="1019" y="482" type="line"/>
      <point x="800" y="480" type="line"/>
      <point x="800" y="504" type="line"/>
      <point x="506" y="504" type="line"/>
    </contour>
    <contour>
      <point x="-1" y="480" type="line"/>
      <point x="-1" y="791" type="line"/>
      <point x="201" y="791" type="line"/>
      <point x="201" y="776" type="line"/>
      <point x="506" y="776" type="line"/>
      <point x="506" y="504" type="line"/>
      <point x="201" y="504" type="line"/>
      <point x="201" y="480" type="line"/>
    </contour>
  </outline>
</glyph>
<glyph name="uni20B2" format="2">
  <advance width="1040"/>
  <unicode hex="20B2"/>
  <outline>
    <contour>
      <point x="479" y="-190" type="line"/>
      <point x="479" y="57" type="line"/>
      <point x="497" y="71" type="line"/>
      <point x="497" y="708" type="line"/>
      <point x="627" y="708" type="line"/>
      <point x="627" y="70" type="line"/>
      <point x="649" y="60" type="line"/>
      <point x="649" y="-190" type="line"/>
    </contour>
    <contour>
      <point x="497" y="708" type="line"/>
      <point x="497" y="1392" type="line"/>
      <point x="482" y="1402" type="line"/>
      <point x="482" y="1632" type="line"/>
      <point x="642" y="1632" type="line"/>
      <point x="642" y="1402" type="line"/>
      <point x="627" y="1389" type="line"/>
      <point x="627" y="708" type="line"/>
    </contour>
    <contour>
      <point x="995" y="1025" type="line"/>
      <point x="995" y="452" type="line" smooth="yes"/>
      <point x="995" y="232"/>
      <point x="775" y="-5"/>
      <point x="571" y="-5" type="qcurve" smooth="yes"/>
      <point x="341" y="-5"/>
      <point x="94" y="278"/>
      <point x="94" y="542" type="qcurve" smooth="yes"/>
      <point x="94" y="897" type="line" smooth="yes"/>
      <point x="94" y="1180"/>
      <point x="336" y="1485"/>
      <point x="561" y="1485" type="qcurve" smooth="yes"/>
      <point x="755" y="1485"/>
      <point x="993" y="1119"/>
      <point x="993" y="910" type="qcurve" smooth="yes"/>
      <point x="993" y="868" type="line"/>
      <point x="803" y="866" type="line"/>
      <point x="803" y="906" type="line" smooth="yes"/>
      <point x="803" y="924"/>
      <point x="681" y="928"/>
      <point x="557" y="928" type="qcurve" smooth="yes"/>
      <point x="427" y="928"/>
      <point x="288" y="922"/>
      <point x="288" y="899" type="qcurve" smooth="yes"/>
      <point x="288" y="544" type="line" smooth="yes"/>
      <point x="288" y="507"/>
      <point x="442" y="496"/>
      <point x="570" y="496" type="qcurve" smooth="yes"/>
      <point x="700" y="496"/>
      <point x="823" y="500"/>
      <point x="823" y="537" type="qcurve" smooth="yes"/>
      <point x="823" y="589" type="line"/>
      <point x="686" y="589" type="line"/>
      <point x="686" y="1025" type="line"/>
    </contour>
  </outline>
</glyph>
<glyph name="liraTurkish" format="2">
  <advance width="1024"/>
  <unicode hex="20BA"/>
  <outline>
    <contour>
      <point x="6" y="354" type="line"/>
      <point x="6" y="612" type="line"/>
      <point x="856" y="986" type="line"/>
      <point x="850" y="729" type="line"/>
    </contour>
    <contour>
      <point x="180" y="0" type="line"/>
      <point x="180" y="1456" type="line"/>
      <point x="362" y="1456" type="line"/>
      <point x="362" y="560" type="line"/>
      <point x="439" y="560" type="line" smooth="yes"/>
      <point x="647" y="560"/>
      <point x="835" y="694"/>
      <point x="835" y="851" type="qcurve" smooth="yes"/>
      <point x="835" y="888" type="line"/>
      <point x="1015" y="888" type="line"/>
      <point x="1015" y="853" type="line" smooth="yes"/>
      <point x="1015" y="299"/>
      <point x="727" y="0"/>
      <point x="402" y="0" type="qcurve" smooth="yes"/>
    </contour>
    <contour>
      <point x="6" y="714" type="line"/>
      <point x="6" y="972" type="line"/>
      <point x="856" y="1346" type="line"/>
      <point x="850" y="1089" type="line"/>
    </contour>
  </outline>
</glyph>
<glyph name="ruble" format="2">
  <advance width="1024"/>
  <unicode hex="20BD"/>
  <outline>
    <contour>
      <point x="526" y="443" type="qcurve" smooth="yes"/>
      <point x="30" y="443" type="line"/>
      <point x="30" y="961" type="line"/>
      <point x="526" y="961" type="line" smooth="yes"/>
      <point x="689" y="961"/>
      <point x="842" y="973"/>
      <point x="842" y="980" type="qcurve" smooth="yes"/>
      <point x="842" y="987"/>
      <point x="695" y="1000"/>
      <point x="526" y="1000" type="qcurve" smooth="yes"/>
      <point x="367" y="1000" type="line"/>
      <point x="367" y="0" type="line"/>
      <point x="188" y="0" type="line"/>
      <point x="188" y="1456" type="line"/>
      <point x="526" y="1456" type="line" smooth="yes"/>
      <point x="772" y="1456"/>
      <point x="1034" y="1216"/>
      <point x="1034" y="967" type="qcurve" smooth="yes"/>
      <point x="1034" y="720"/>
      <point x="772" y="443"/>
    </contour>
    <contour>
      <point x="754" y="437" type="line"/>
      <point x="754" y="86" type="line"/>
      <point x="30" y="86" type="line"/>
      <point x="30" y="437" type="line"/>
    </contour>
  </outline>
</glyph>
<glyph name="acutecombstack.case" format="2">
  <anchor x="0" y="1536" name="_top"/>
  <anchor x="0" y="1941" name="top"/>
  <outline>
    <contour>
      <point x="-405" y="1686" type="line"/>
      <point x="149" y="1919" type="line"/>
      <point x="256" y="1756" type="line"/>
      <point x="-27" y="1570" type="line"/>
    </contour>
  </outline>
</glyph>
<glyph name="breve.cyrcomb" format="2">
	<outline>
		<contour>
			<point x="0" y="1366" type="qcurve" smooth="yes"/>
			<point x="69" y="1366"/>
			<point x="163" y="1444"/>
			<point x="191" y="1530" type="qcurve"/>
			<point x="334" y="1447" type="line"/>
			<point x="288" y="1328"/>
			<point x="111" y="1218"/>
			<point x="0" y="1218" type="qcurve" smooth="yes"/>
			<point x="-112" y="1218"/>
			<point x="-285" y="1325"/>
			<point x="-334" y="1447" type="qcurve"/>
			<point x="-190" y="1534" type="line"/>
			<point x="-161" y="1439"/>
			<point x="-69" y="1366"/>
		</contour>
	</outline>
	<anchor name="_top" x="0" y="1052"/>
	<anchor name="top" x="0" y="1534"/>
</glyph>
<glyph name="brevecombstack.case" format="2">
  <anchor x="0" y="1536" name="_top"/>
  <anchor x="0" y="1910" name="top"/>
  <outline>
    <contour>
      <point x="0" y="1610" type="qcurve"/>
      <point x="-128" y="1610"/>
      <point x="-388" y="1731"/>
      <point x="-436" y="1845" type="qcurve"/>
      <point x="-103" y="1910" type="line"/>
      <point x="-100" y="1847"/>
      <point x="-95" y="1769"/>
      <point x="0" y="1769" type="qcurve"/>
      <point x="95" y="1769"/>
      <point x="100" y="1847"/>
      <point x="103" y="1910" type="qcurve"/>
      <point x="436" y="1845" type="line"/>
      <point x="388" y="1731"/>
      <point x="128" y="1610"/>
    </contour>
  </outline>
</glyph>
<glyph name="breveinvertedcomb.case" format="2">
  <anchor x="0" y="1456" name="_top"/>
  <anchor x="0" y="1936" name="top"/>
  <outline>
    <contour>
      <point x="-103" y="1600" type="qcurve"/>
      <point x="-436" y="1669" type="line"/>
      <point x="-388" y="1783"/>
      <point x="-128" y="1936"/>
      <point x="0" y="1936" type="qcurve"/>
      <point x="128" y="1936"/>
      <point x="388" y="1783"/>
      <point x="436" y="1669" type="qcurve"/>
      <point x="103" y="1600" type="line"/>
      <point x="100" y="1663"/>
      <point x="95" y="1767"/>
      <point x="0" y="1767" type="qcurve"/>
      <point x="-95" y="1767"/>
      <point x="-100" y="1663"/>
    </contour>
  </outline>
</glyph>
<glyph name="dieresistonoscomb.case" format="2">
	<outline>
		<contour>
			<point x="-262" y="1527" type="qcurve" smooth="yes"/>
			<point x="-315" y="1527"/>
			<point x="-371" y="1588"/>
			<point x="-371" y="1631" type="qcurve" smooth="yes"/>
			<point x="-371" y="1676"/>
			<point x="-315" y="1738"/>
			<point x="-262" y="1738" type="qcurve" smooth="yes"/>
			<point x="-208" y="1738"/>
			<point x="-152" y="1676"/>
			<point x="-152" y="1631" type="qcurve" smooth="yes"/>
			<point x="-152" y="1588"/>
			<point x="-208" y="1527"/>
		</contour>
		<contour>
			<point x="81" y="1526" type="line"/>
			<point x="-95" y="1534" type="line"/>
			<point x="-43" y="1869" type="line"/>
			<point x="143" y="1869" type="line"/>
		</contour>
		<contour>
			<point x="299" y="1525" type="qcurve" smooth="yes"/>
			<point x="245" y="1525"/>
			<point x="190" y="1586"/>
			<point x="190" y="1629" type="qcurve" smooth="yes"/>
			<point x="190" y="1674"/>
			<point x="245" y="1736"/>
			<point x="299" y="1736" type="qcurve" smooth="yes"/>
			<point x="352" y="1736"/>
			<point x="409" y="1674"/>
			<point x="409" y="1629" type="qcurve" smooth="yes"/>
			<point x="409" y="1586"/>
			<point x="352" y="1525"/>
		</contour>
	</outline>
</glyph>
<glyph name="hungarumlautcomb-stack.case" format="2">
  <anchor x="0" y="1456" name="_top"/>
  <anchor x="0" y="1995" name="top"/>
  <outline>
    <contour>
      <point x="-581" y="1675" type="line"/>
      <point x="-89" y="1974" type="line"/>
      <point x="68" y="1876" type="line"/>
      <point x="31" y="1600" type="line"/>
    </contour>
    <contour>
      <point x="-81" y="1675" type="line"/>
      <point x="411" y="1974" type="line"/>
      <point x="568" y="1876" type="line"/>
      <point x="531" y="1600" type="line"/>
    </contour>
  </outline>
</glyph>
<glyph name="nine.prop" format="2">
  <advance width="1136"/>
  <outline>
    <contour>
      <point x="60" y="1002" type="qcurve" smooth="yes"/>
      <point x="60" y="1218"/>
      <point x="334" y="1486"/>
      <point x="544" y="1486" type="qcurve" smooth="yes"/>
      <point x="754" y="1486"/>
      <point x="1056" y="1182"/>
      <point x="1056" y="842" type="qcurve" smooth="yes"/>
      <point x="1056" y="812" type="line" smooth="yes"/>
      <point x="1056" y="459"/>
      <point x="645" y="0"/>
      <point x="265" y="0" type="qcurve" smooth="yes"/>
      <point x="244" y="0" type="line"/>
      <point x="244" y="577" type="line"/>
      <point x="264" y="577" type="line" smooth="yes"/>
      <point x="582" y="577"/>
      <point x="868" y="787"/>
      <point x="868" y="851" type="qcurve" smooth="yes"/>
      <point x="868" y="966" type="line" smooth="yes"/>
      <point x="868" y="980"/>
      <point x="684" y="990"/>
      <point x="544" y="990" type="qcurve" smooth="yes"/>
      <point x="404" y="990"/>
      <point x="250" y="982"/>
      <point x="250" y="974" type="qcurve" smooth="yes"/>
      <point x="250" y="966"/>
      <point x="404" y="958"/>
      <point x="544" y="958" type="qcurve" smooth="yes"/>
      <point x="674" y="958"/>
      <point x="874" y="966"/>
      <point x="874" y="1002" type="qcurve"/>
      <point x="944" y="1002" type="line"/>
      <point x="944" y="786"/>
      <point x="704" y="520"/>
      <point x="504" y="520" type="qcurve" smooth="yes"/>
      <point x="305" y="520"/>
      <point x="60" y="786"/>
    </contour>
  </outline>
</glyph>
<glyph name="one.prop" format="2">
  <advance width="736"/>
  <outline>
    <contour>
      <point x="393" y="0" type="line"/>
      <point x="393" y="786" type="line"/>
      <point x="25" y="631" type="line"/>
      <point x="25" y="1276" type="line"/>
      <point x="555" y="1476" type="line"/>
      <point x="585" y="1476" type="line"/>
      <point x="585" y="0" type="line"/>
    </contour>
  </outline>
</glyph>
<glyph name="six.prop" format="2">
  <advance width="1136"/>
  <outline>
    <contour>
      <point x="80" y="614" type="qcurve" smooth="yes"/>
      <point x="80" y="644" type="line" smooth="yes"/>
      <point x="80" y="1024"/>
      <point x="492" y="1486"/>
      <point x="872" y="1486" type="qcurve" smooth="yes"/>
      <point x="892" y="1486" type="line"/>
      <point x="892" y="939" type="line"/>
      <point x="872" y="939" type="line" smooth="yes"/>
      <point x="574" y="939"/>
      <point x="268" y="688"/>
      <point x="268" y="593" type="qcurve" smooth="yes"/>
      <point x="268" y="492" type="line" smooth="yes"/>
      <point x="268" y="477"/>
      <point x="451" y="466"/>
      <point x="592" y="466" type="qcurve" smooth="yes"/>
      <point x="732" y="466"/>
      <point x="886" y="473"/>
      <point x="886" y="482" type="qcurve" smooth="yes"/>
      <point x="886" y="491"/>
      <point x="730" y="498"/>
      <point x="592" y="498" type="qcurve" smooth="yes"/>
      <point x="447" y="498"/>
      <point x="262" y="483"/>
      <point x="262" y="464" type="qcurve"/>
      <point x="192" y="464" type="line"/>
      <point x="192" y="684"/>
      <point x="432" y="956"/>
      <point x="631" y="956" type="qcurve" smooth="yes"/>
      <point x="832" y="956"/>
      <point x="1076" y="684"/>
      <point x="1076" y="464" type="qcurve" smooth="yes"/>
      <point x="1076" y="244"/>
      <point x="802" y="-30"/>
      <point x="592" y="-30" type="qcurve" smooth="yes"/>
      <point x="382" y="-30"/>
      <point x="80" y="274"/>
    </contour>
  </outline>
</glyph>
<glyph name="tonoscomb.case" format="2">
	<outline>
		<contour>
			<point x="56" y="1047" type="line"/>
			<point x="-117" y="1091" type="line"/>
			<point x="-14" y="1454" type="line"/>
			<point x="171" y="1435" type="line"/>
		</contour>
	</outline>
	<anchor name="_tonos" x="36" y="1052"/>
</glyph>
<glyph name="two.prop" format="2">
  <advance width="988"/>
  <outline>
    <contour>
      <point x="26" y="0" type="line"/>
      <point x="26" y="451" type="line"/>
      <point x="546" y="684" type="line" smooth="yes"/>
      <point x="647" y="729"/>
      <point x="756" y="822"/>
      <point x="756" y="863" type="qcurve" smooth="yes"/>
      <point x="756" y="909"/>
      <point x="624" y="1006"/>
      <point x="501" y="1006" type="qcurve" smooth="yes"/>
      <point x="369" y="1006"/>
      <point x="216" y="923"/>
      <point x="216" y="905" type="qcurve" smooth="yes"/>
      <point x="216" y="899" type="line"/>
      <point x="26" y="899" type="line"/>
      <point x="26" y="905" type="line" smooth="yes"/>
      <point x="26" y="1185"/>
      <point x="272" y="1486"/>
      <point x="501" y="1486" type="qcurve" smooth="yes"/>
      <point x="715" y="1486"/>
      <point x="946" y="1205"/>
      <point x="946" y="944" type="qcurve" smooth="yes"/>
      <point x="946" y="842"/>
      <point x="813" y="636"/>
      <point x="671" y="615" type="qcurve" smooth="yes"/>
      <point x="337" y="566" type="line"/>
      <point x="986" y="566" type="line"/>
      <point x="986" y="0" type="line"/>
    </contour>
  </outline>
</glyph>
<glyph name="ve.bgr" format="2">
  <advance width="1074"/>
  <outline>
    <contour>
      <point x="125" y="400" type="qcurve" smooth="yes"/>
      <point x="125" y="1070" type="line" smooth="yes"/>
      <point x="125" y="1258"/>
      <point x="351" y="1476"/>
      <point x="543" y="1476" type="qcurve" smooth="yes"/>
      <point x="730" y="1476"/>
      <point x="947" y="1264"/>
      <point x="947" y="1080" type="qcurve" smooth="yes"/>
      <point x="947" y="974"/>
      <point x="843" y="815"/>
      <point x="729" y="766" type="qcurve"/>
      <point x="729" y="762" type="line"/>
      <point x="848" y="736"/>
      <point x="999" y="588"/>
      <point x="999" y="421" type="qcurve" smooth="yes"/>
      <point x="999" y="201"/>
      <point x="762" y="-30"/>
      <point x="562" y="-30" type="qcurve" smooth="yes"/>
      <point x="349" y="-30"/>
      <point x="125" y="201"/>
    </contour>
    <contour>
      <point x="311" y="616" type="line" smooth="yes"/>
      <point x="311" y="549"/>
      <point x="438" y="467"/>
      <point x="562" y="467" type="qcurve" smooth="yes"/>
      <point x="686" y="467"/>
      <point x="813" y="488"/>
      <point x="813" y="501" type="qcurve" smooth="yes"/>
      <point x="813" y="513"/>
      <point x="664" y="518"/>
      <point x="524" y="518" type="qcurve" smooth="yes"/>
      <point x="231" y="518" type="line"/>
      <point x="231" y="947" type="line"/>
      <point x="515" y="947" type="line" smooth="yes"/>
      <point x="630" y="947"/>
      <point x="763" y="956"/>
      <point x="763" y="965" type="qcurve" smooth="yes"/>
      <point x="763" y="974"/>
      <point x="654" y="979"/>
      <point x="543" y="979" type="qcurve" smooth="yes"/>
      <point x="431" y="979"/>
      <point x="311" y="938"/>
      <point x="311" y="882" type="qcurve" smooth="yes"/>
    </contour>
  </outline>
</glyph>
